<mxfile host="app.diagrams.net" modified="2024-06-10T23:45:26.943Z" agent="Mozilla/5.0 (Macintosh; Intel Mac OS X 10_15_7) AppleWebKit/537.36 (KHTML, like Gecko) Chrome/124.0.0.0 Safari/537.36" version="24.4.7" etag="nGjyvJWDkyAVVwZSEU4c" type="github">
  <diagram name="Page-1" id="AIYPU_c7dpgE2893qBZ_">
    <mxGraphModel>
      <root>
        <mxCell id="0" />
        <mxCell id="1" parent="0" />
      </root>
    </mxGraphModel>
  </diagram>
</mxfile>
